<mxfile host="app.diagrams.net" modified="2024-04-18T10:18:30.914Z" agent="Mozilla/5.0 (Windows NT 10.0; Win64; x64) AppleWebKit/537.36 (KHTML, like Gecko) Chrome/124.0.0.0 Safari/537.36" etag="Q8Xbup9vIhP1zyPMJwRJ" version="24.2.0" type="github" pages="3">
  <diagram id="uI5uaSOyiA5TXRfBmzjc" name="总览">
    <mxGraphModel dx="2224" dy="718" grid="1" gridSize="10" guides="1" tooltips="1" connect="1" arrows="1" fold="1" page="1" pageScale="1" pageWidth="827" pageHeight="1169" math="0" shadow="0">
      <root>
        <mxCell id="0" />
        <mxCell id="1" parent="0" />
        <mxCell id="HvD7HggZN8nKDpkfIG8m-2" value="" style="rounded=0;whiteSpace=wrap;html=1;" vertex="1" parent="1">
          <mxGeometry x="-210" y="520" width="317" height="150" as="geometry" />
        </mxCell>
        <mxCell id="HvD7HggZN8nKDpkfIG8m-3" value="consensus mechanism" style="text;strokeColor=none;align=center;fillColor=none;html=1;verticalAlign=middle;whiteSpace=wrap;rounded=0;fontStyle=1;fontSize=15;" vertex="1" parent="1">
          <mxGeometry x="-197" y="520" width="177" height="40" as="geometry" />
        </mxCell>
        <mxCell id="HvD7HggZN8nKDpkfIG8m-1" value="Block Chain" style="sketch=0;outlineConnect=0;fontColor=#232F3E;gradientColor=none;fillColor=#ED7100;strokeColor=none;dashed=0;verticalLabelPosition=bottom;verticalAlign=top;align=center;html=1;fontSize=12;fontStyle=1;aspect=fixed;shape=mxgraph.aws4.blockchain_resource;" vertex="1" parent="1">
          <mxGeometry x="-129.5" y="585" width="156" height="50" as="geometry" />
        </mxCell>
      </root>
    </mxGraphModel>
  </diagram>
  <diagram name="区块" id="fEUWl-14gBJczgdTES_2">
    <mxGraphModel dx="2597" dy="318" grid="0" gridSize="10" guides="1" tooltips="1" connect="1" arrows="1" fold="1" page="0" pageScale="1" pageWidth="827" pageHeight="1169" math="0" shadow="0">
      <root>
        <mxCell id="0" />
        <mxCell id="1" parent="0" />
        <mxCell id="q9trxet7QKn2z58Sx8oV-3" value="" style="html=1;whiteSpace=wrap;shape=isoCube2;backgroundOutline=1;isoAngle=15;fontStyle=1;fillColor=#dae8fc;strokeColor=#6c8ebf;" vertex="1" parent="1">
          <mxGeometry x="183" y="519" width="205" height="223" as="geometry" />
        </mxCell>
        <mxCell id="q9trxet7QKn2z58Sx8oV-4" value="hash" style="text;strokeColor=#6c8ebf;align=center;fillColor=#dae8fc;html=1;verticalAlign=middle;whiteSpace=wrap;rounded=0;fontStyle=1;fontSize=15;" vertex="1" parent="1">
          <mxGeometry x="256" y="550" width="71" height="31" as="geometry" />
        </mxCell>
        <mxCell id="q9trxet7QKn2z58Sx8oV-5" value="随机数" style="text;strokeColor=#6c8ebf;align=center;fillColor=#dae8fc;html=1;verticalAlign=middle;whiteSpace=wrap;rounded=0;fontStyle=1;fontSize=15;" vertex="1" parent="1">
          <mxGeometry x="107" y="668" width="71" height="31" as="geometry" />
        </mxCell>
        <mxCell id="q9trxet7QKn2z58Sx8oV-6" value="时间戳" style="text;strokeColor=#6c8ebf;align=center;fillColor=#dae8fc;html=1;verticalAlign=middle;whiteSpace=wrap;rounded=0;fontStyle=1;fontSize=15;" vertex="1" parent="1">
          <mxGeometry x="107" y="592" width="71" height="31" as="geometry" />
        </mxCell>
        <mxCell id="q9trxet7QKn2z58Sx8oV-7" value="交易数据" style="text;strokeColor=#6c8ebf;align=center;fillColor=#dae8fc;html=1;verticalAlign=middle;whiteSpace=wrap;rounded=0;fontStyle=1;fontSize=15;" vertex="1" parent="1">
          <mxGeometry x="213" y="620" width="71" height="31" as="geometry" />
        </mxCell>
        <mxCell id="q9trxet7QKn2z58Sx8oV-8" value="交易数据" style="text;strokeColor=#6c8ebf;align=center;fillColor=#dae8fc;html=1;verticalAlign=middle;whiteSpace=wrap;rounded=0;fontStyle=1;fontSize=15;" vertex="1" parent="1">
          <mxGeometry x="112" y="634" width="71" height="31" as="geometry" />
        </mxCell>
        <mxCell id="q9trxet7QKn2z58Sx8oV-9" value="" style="html=1;whiteSpace=wrap;shape=isoCube2;backgroundOutline=1;isoAngle=15;fontStyle=1;fillColor=#ffe6cc;strokeColor=#d79b00;" vertex="1" parent="1">
          <mxGeometry x="-206" y="524" width="205" height="223" as="geometry" />
        </mxCell>
        <mxCell id="q9trxet7QKn2z58Sx8oV-10" value="hash" style="text;strokeColor=#d79b00;align=center;fillColor=#ffe6cc;html=1;verticalAlign=middle;whiteSpace=wrap;rounded=0;fontStyle=1;fontSize=15;" vertex="1" parent="1">
          <mxGeometry x="-147" y="555" width="71" height="31" as="geometry" />
        </mxCell>
        <mxCell id="q9trxet7QKn2z58Sx8oV-11" value="随机数" style="text;strokeColor=#d79b00;align=center;fillColor=#ffe6cc;html=1;verticalAlign=middle;whiteSpace=wrap;rounded=0;fontStyle=1;fontSize=15;" vertex="1" parent="1">
          <mxGeometry x="-325" y="659" width="71" height="31" as="geometry" />
        </mxCell>
        <mxCell id="q9trxet7QKn2z58Sx8oV-12" value="时间戳" style="text;strokeColor=#d79b00;align=center;fillColor=#ffe6cc;html=1;verticalAlign=middle;whiteSpace=wrap;rounded=0;fontStyle=1;fontSize=15;" vertex="1" parent="1">
          <mxGeometry x="-325" y="594" width="71" height="31" as="geometry" />
        </mxCell>
        <mxCell id="q9trxet7QKn2z58Sx8oV-13" value="交易数据" style="text;strokeColor=#d79b00;align=center;fillColor=#ffe6cc;html=1;verticalAlign=middle;whiteSpace=wrap;rounded=0;fontStyle=1;fontSize=15;" vertex="1" parent="1">
          <mxGeometry x="-184" y="625" width="71" height="31" as="geometry" />
        </mxCell>
        <mxCell id="q9trxet7QKn2z58Sx8oV-14" value="交易数据" style="text;strokeColor=#d79b00;align=center;fillColor=#ffe6cc;html=1;verticalAlign=middle;whiteSpace=wrap;rounded=0;fontStyle=1;fontSize=15;" vertex="1" parent="1">
          <mxGeometry x="-320" y="625" width="71" height="31" as="geometry" />
        </mxCell>
        <mxCell id="q9trxet7QKn2z58Sx8oV-15" value="hash" style="text;strokeColor=#d79b00;align=center;fillColor=#ffe6cc;html=1;verticalAlign=middle;whiteSpace=wrap;rounded=0;fontStyle=1;fontSize=15;" vertex="1" parent="1">
          <mxGeometry x="2" y="519" width="71" height="31" as="geometry" />
        </mxCell>
        <mxCell id="q9trxet7QKn2z58Sx8oV-18" style="edgeStyle=orthogonalEdgeStyle;curved=1;rounded=0;orthogonalLoop=1;jettySize=auto;html=1;exitX=0;exitY=0;exitDx=0;exitDy=49.21614561142378;exitPerimeter=0;entryX=0;entryY=0;entryDx=205;entryDy=49.21614561142378;entryPerimeter=0;fontStyle=1" edge="1" parent="1" source="q9trxet7QKn2z58Sx8oV-3" target="q9trxet7QKn2z58Sx8oV-9">
          <mxGeometry relative="1" as="geometry" />
        </mxCell>
        <mxCell id="q9trxet7QKn2z58Sx8oV-19" value="" style="html=1;whiteSpace=wrap;shape=isoCube2;backgroundOutline=1;isoAngle=15;fontStyle=1;fillColor=#d5e8d4;strokeColor=#82b366;" vertex="1" parent="1">
          <mxGeometry x="578" y="514" width="205" height="223" as="geometry" />
        </mxCell>
        <mxCell id="q9trxet7QKn2z58Sx8oV-20" value="hash" style="text;strokeColor=#82b366;align=center;fillColor=#d5e8d4;html=1;verticalAlign=middle;whiteSpace=wrap;rounded=0;fontStyle=1;fontSize=15;" vertex="1" parent="1">
          <mxGeometry x="651" y="545" width="71" height="31" as="geometry" />
        </mxCell>
        <mxCell id="q9trxet7QKn2z58Sx8oV-21" value="随机数" style="text;strokeColor=#82b366;align=center;fillColor=#d5e8d4;html=1;verticalAlign=middle;whiteSpace=wrap;rounded=0;fontStyle=1;fontSize=15;" vertex="1" parent="1">
          <mxGeometry x="502" y="663" width="71" height="31" as="geometry" />
        </mxCell>
        <mxCell id="q9trxet7QKn2z58Sx8oV-22" value="时间戳" style="text;strokeColor=#82b366;align=center;fillColor=#d5e8d4;html=1;verticalAlign=middle;whiteSpace=wrap;rounded=0;fontStyle=1;fontSize=15;" vertex="1" parent="1">
          <mxGeometry x="502" y="587" width="71" height="31" as="geometry" />
        </mxCell>
        <mxCell id="q9trxet7QKn2z58Sx8oV-23" value="交易数据" style="text;strokeColor=#82b366;align=center;fillColor=#d5e8d4;html=1;verticalAlign=middle;whiteSpace=wrap;rounded=0;fontStyle=1;fontSize=15;" vertex="1" parent="1">
          <mxGeometry x="608" y="615" width="71" height="31" as="geometry" />
        </mxCell>
        <mxCell id="q9trxet7QKn2z58Sx8oV-24" value="交易数据" style="text;strokeColor=#82b366;align=center;fillColor=#d5e8d4;html=1;verticalAlign=middle;whiteSpace=wrap;rounded=0;fontStyle=1;fontSize=15;" vertex="1" parent="1">
          <mxGeometry x="507" y="629" width="71" height="31" as="geometry" />
        </mxCell>
        <mxCell id="q9trxet7QKn2z58Sx8oV-25" value="hash" style="text;strokeColor=#6c8ebf;align=center;fillColor=#dae8fc;html=1;verticalAlign=middle;whiteSpace=wrap;rounded=0;fontStyle=1;fontSize=15;" vertex="1" parent="1">
          <mxGeometry x="397" y="514" width="71" height="31" as="geometry" />
        </mxCell>
        <mxCell id="q9trxet7QKn2z58Sx8oV-26" style="edgeStyle=orthogonalEdgeStyle;curved=1;rounded=0;orthogonalLoop=1;jettySize=auto;html=1;exitX=0;exitY=0;exitDx=0;exitDy=49.21614561142378;exitPerimeter=0;entryX=1.019;entryY=0.263;entryDx=0;entryDy=0;entryPerimeter=0;fontStyle=1" edge="1" parent="1" source="q9trxet7QKn2z58Sx8oV-19" target="q9trxet7QKn2z58Sx8oV-3">
          <mxGeometry relative="1" as="geometry">
            <mxPoint x="394" y="568" as="targetPoint" />
          </mxGeometry>
        </mxCell>
        <mxCell id="EvC8QoXtSVJTTWV4gr5P-1" value="" style="rounded=0;whiteSpace=wrap;html=1;fillColor=#f5f5f5;fontColor=#333333;strokeColor=#666666;fontStyle=1" vertex="1" parent="1">
          <mxGeometry x="-365" y="893" width="313" height="273" as="geometry" />
        </mxCell>
        <mxCell id="EvC8QoXtSVJTTWV4gr5P-2" value="交易ID" style="ellipse;whiteSpace=wrap;html=1;fillColor=#1ba1e2;strokeColor=#006EAF;fontColor=#ffffff;fontStyle=1" vertex="1" parent="1">
          <mxGeometry x="-356" y="898" width="69" height="44" as="geometry" />
        </mxCell>
        <mxCell id="EvC8QoXtSVJTTWV4gr5P-3" value="input" style="rounded=0;whiteSpace=wrap;html=1;fontStyle=1" vertex="1" parent="1">
          <mxGeometry x="-675" y="979" width="257" height="59" as="geometry" />
        </mxCell>
        <mxCell id="EvC8QoXtSVJTTWV4gr5P-4" value="output" style="rounded=0;whiteSpace=wrap;html=1;fontStyle=1" vertex="1" parent="1">
          <mxGeometry x="-675" y="1067" width="255" height="61" as="geometry" />
        </mxCell>
        <mxCell id="EvC8QoXtSVJTTWV4gr5P-6" value="交易ID" style="rounded=1;whiteSpace=wrap;html=1;fontStyle=1" vertex="1" parent="1">
          <mxGeometry x="-882" y="1189" width="80" height="43" as="geometry" />
        </mxCell>
        <mxCell id="EvC8QoXtSVJTTWV4gr5P-7" value="输出索引号（Vout）" style="rounded=1;whiteSpace=wrap;html=1;fontStyle=1" vertex="1" parent="1">
          <mxGeometry x="-784" y="1189" width="80" height="43" as="geometry" />
        </mxCell>
        <mxCell id="EvC8QoXtSVJTTWV4gr5P-15" value="" style="group;fontStyle=1" vertex="1" connectable="0" parent="1">
          <mxGeometry x="-688" y="1187" width="85" height="46" as="geometry" />
        </mxCell>
        <mxCell id="EvC8QoXtSVJTTWV4gr5P-11" value="" style="rounded=0;whiteSpace=wrap;html=1;fontStyle=1" vertex="1" parent="EvC8QoXtSVJTTWV4gr5P-15">
          <mxGeometry width="85" height="46" as="geometry" />
        </mxCell>
        <mxCell id="EvC8QoXtSVJTTWV4gr5P-14" value="" style="shape=stencil(7Z3Zzhy3EYWfRrcN7su147yHAcuREEUyZGV7+xQjdf/Tp6a/iYwYkZG5k3+zpptkLadOFdmv8ne/vPnh59evUvjl08cPf37997c/fnrzKv/hVUpv3795/fHtJ/vXq/z9q/zdTx8+vv7Txw9/ff/j5//++Yc1cv3rLx/+tn7hH5/lYt1mXVIp/PPLX/LW5r//8sfPAu/evr8VyFvOZ4Gx/+W+QNjaWSCVrcRrgb7VeRqf09bH9fiyzXYaX8L+l7vj81b6eXzfMvx+3mI6ja82o3o9Pm1jnMdHnG/a6vl9atpCoPEp6nj6/bgNN77B7x9vezO+wnrGLSQdn+H3bfW6rs8ABQr77tyMj7BfYYtnfagB9zds4ayfZW4FLCDsu3OMH1sFfbDxop99a4nGp/N6lrZ11DdZz2IaW67HN51vbluB9xmqnzluFcZHU4jzhiV+gLmUIh4ibglmbE4rn5c0djQZ+9/5rNP2krOzgHg5U1tYVBNo51eaW6fxQxdpboGmfOjYPn6gEsWpWje2QkY8dxt/GV/BCJZWF31/clphf/zL+AbvY+PFa9kGVFjQ5YYkkEWeweFFDoGEW3ZHIG/zwSudLccUN/CijvOixrY7s6td62dfZNGqUjCe6ixy2V/yag7lPOnc0RAsHKu7GOy+fLzv6N9z2J3DMemJczB/VUTAVIOeYCHW7TSFqIVQztra92W7HC8+fnfKV+PH2XrSNiHkZ4sAYj2Pxot1Rl7RrBgn7Et8f3xRhx3QEGz8qDoevEu2gKDjI/1+3UaQ8QTpLEKmIOuTCWK2rZ7X3zSK1tMivMTkLYN3t/FD9afw78t86w7Kr9ZHPNdEG16IQBzXxAlbdIlnAcMIneJBVRRuOkgBcMHqs0pk831gkwtnCk4zraVMaOgmGxAkrV65lkPWk4J43apsW8Z9XvGlqAAtaywa9pcAzaHsU7wRwOwgKzAyAfItK8EMukqZoJH9nixrRG9kcX6crc0yBASoaV/EmxQhU8qVFL2YaiQCqMklsRYEedJJPEDb88IrAYnLpfIqdZe35F3hr6BCO6uGJeIUZi1INsEWDU00Z7U4C4wo0Ld51iUDD4EcqwdUc7fB++SDy+5MgLJNEyhFBQiZm0CfKkDOuBhOdZNO4O1LVM9nAgNMtDh3bwGA4kmJygHZxpEjWwLyhIxOYL2SzKGgxZlACSowaeOi8goWJQk02MYJiMmM5pe5RBUgJmK9wNmAzKYpNV+aI1xKwScYDpGsqjF595KIH0jYXBtlJA4K94Gp+VRVGhnprK7WMDpit4NsuRlPPqYpPWXjKYI2jVZrPLx/1fhp4wuOF2MeDbF/1VTBxhN0K/t2HuMre0jNaUfBzL9ocB6MSMoOoY7xaae0L+YrAMbGR5hvVSZoMP1V1XONiCFnbPk8vh+E238Id/qxxJe8xVkj2kTIZt5fgqAZfSI/dHBRh0DAVzI3JflUHczxT6XL2kEj39+F4ATqnmPdf8JQZqQfxP/VHNQQAhuC86VmyelBPBDO7EB9V/uQz/sw++5dLwOIkGbhQaadFI3MgYyTKZPYzyy7x7lKDSXpGQPZYPPw6mHCTsdcRcF4noNZELkMQzeSbltQo1cyKCFBxATIaRtQFU7LtG+SyU3lzNek6ZXqHiWPfWALskkn2emM+m37IKzZbMhqrdAjrzTQz5ivl9hvAsSzmYC4viVAqpHV9c2DqL8SkGzVTA5XyWV6tkpko8kBpFmZKkl71nVjcYQwPFWydpr2IWmMm+nRpCWoz/gId0YRMG3ljVOvMRF3poO7vxFAXXKcngkMSj6jEtsmQKX1FUbllQbnYVV3emFJwnquIrHAIbySpQdCrBraG4R+htqD+SUqbLWg5eNeMTVsUQFxP1Lq+wIOMNlfKEVvSauFtXHK4DLuwkWS5oLiyvIJzkyND6tGwfugRdiE6m1TFHtYZVnSpbprzrHTiBxsvPiAhspt48XvVcSUfnxBSOnfJ2MAtQUSbvUg+a7GZx1PeUBt+v4RScnalUKP+wtejRd3FJB8Xhrkfp/WZ2hfzYP3HwrbEqIFMwEtGbAnmuq6mApvQSPIC+17ZfXCIK2qE7yR9yvLZECFmiN5DcVRxtCKJvOLSAOjNAE1moRx1gSGY4Up5CwB4aiO4t7lKzlSi4i55irO5n3J0lY268h2okhsH4Y8YfCy5l31DwFu7zDVEO9rAsTZmoDUtMvkrp+4L+LNHMg/moAu60CixAREW1djHUdBfaWGJK8JiAswyERMRnVZ0kvzwGVgFhMtbA9Hv8XhNQZr63Sl+YztY70pC9ARKozi+ruwCrNAqXRHoH0uDkJQKiKRNV6aKRouqb1QPyveqpDAGy0CUrxeQlswSCqhwcAA6ZFB0nh+pcZz6Mmh2oT2bBhWVqkXTDxNj2ZXAUqpTEBIul4w8WwOcy4Bsueh1bZecFmbay00AerbaEM5iZ6xBtMcDO4Jm4NbV0dsAtSNZAJDXimy1+tKWHfmDZsDYo3zyLVKIvDAJznKzf5CdFUbSiYt5w9OqR8VyMPiCvZK2CLeKYiDtnZXG17Qh/xqvdPZRglAHxobcsOMZ7iQ+9K3c+XIpIK+4hv7bu1dDlg8mFG11dAYVZ+n62xbzDp4vulYD0tsyKaH6zx9gSr3BbpyQ0sdKT64EwK291RiHK7lfwVV2rioAHGyEzABgaCz7jtzJaD9tkdP11WM6yLQ0RmvoChzGBhF+9SjI4tcJZueaqKTm4z7dG1oA6keM1Htwh57f8alTTv6lrBGH0om2T5QObN3bQWaXIjq3fG9HKfvCGSsWHdXMJncRmOTFq8xHhhQ0ByuN6TchkuYWmWBpslGbQhDx9AWS0uYqI47g9b3LA+lHM72VQifwhydqZoo36qL0hMcXjJnTH3Jczomk48BTNf/1Lgl66ZeeIvhwDFNB1xNW6j6ZrPWjgaum07XAvGgeDBd59pk2mS1hPh6BuU0xVVmI+Kf4XqyJp9iein/Has0OYw6SDaYQTBvrHXWjljaBLSe0TjVdanoqNgrul5JBDIWNdek5ZUSxqy1rKJ8kZ8QXT8QQ2N7AW0I4ubykRR8D+7utzWRJGgkrFwtbyxPKNiNagLSEDgqG5A7hGm6RDttAtIxYg4dT625nt3Bx/pMQJ5gFkeZ33AEmQmgEwgOMAVk1BYkcxVEqo15SGarRD3sfarnW/vATkBYhPGAOpluHwomciPcadAiQmoEVwWNOxFxtXHC5iyLoydEPT6xbJpV4ysFirOHhGBjRaCoAnRkZEZlc9YTHkTRqXPAzK8pO/ugrWZWDSitIzSeVUnvFnDjDDkL1qh8UGYmBX2VD5PPoLmlPQHd/dCNWxVwEmiOexxYlzJXKcdMOneYL81xrRCofM/sdYfjz+z195C9qqsc6IyXaojnC3jcZ7l7IZgisv2juO7UB4isqTOu3A1hU9SWlIneexRXjOsMTqJWvix7pfLA6usXAW5c7k3LNKWhI+vu2Oi6KoKUz9/t0TGhXlT9eR8W/0+69KzrfBF41nXuzOEbq+v04Gg4bqXoLlM0RxbJgFwRpT7IdrPSFJk7chc5JG05FeP0dB2IsXIe5yxuckHbHWmJAVvHVkxs+kakSt3dlrEO/JOyNg0Pif1Yy4pz84Nmp+LO1zW2n2cr0hcByl2frUi7wP+8FUnJ/oygsk5lKXLHNK4OJUMzM8C1u7PLic9INa3tRqZbny28zxZeGf9NtfCudj8xSnbXQasyFpjR+0aN/HEij2HeV+PsZCRc3NF6hjvNFbssqGHb8nGm/IaxIqs3AclIXhqZr15J0EgPj8KmXD/UK5+5dieWBltOc3dGWUaNp6i7w3iBBYpjrBJSK/UoC90QH3h+1NGlk3tT83BdKQ2v6sxR8c7sfIjqeYLvy7I+T/D5Zf0GT/BFdwAbr81yvQ2rjk8GVFzNJPFNc9FNOuLJsXUTnCucErLNzbkZ3rg8lLEafDpi3XMSdNJkccX1zHeuFr/canJEoMLL6prsW0Pa2vZBDuR1pnxXfu3mQFg1FmUZHpQE/QHvigftn/ecPO85Oc/3W7vnRMjLPrCLK0YlLhZzTlcPVb3BY3G4dHGEu5Xq5ZjtfYGhvnQxHRRAirsrOiBOXZyAsASZvbVr4HheWHZX4Hlh2bdwYdlwy9oeXRyrk354sagUew1tUIae/N2OXCN53uK5Czxv8fQC39wtnsVdEchXWceh8SEPtjj3vYXMzaLL4uS6/4GlpOSuLkrciZbcfWRLu+AJz/u4//v3cRcZ/393Hze/z9fdx90U2k7W56Y2aTEF7yqq2j63Si+koUVjlP2FcGd2CXPhz9YsWCoCfOxjfWXEFS6RD8pKbJeJDXpLy1wdkvCOOVP1Kw03Ljbn3yN/t6NqCcO2EkOOu0g99UfwRTit5YzoldwHZhYCen5s5TT++bGVX/OxFWKDf/OPrSTXYry+fMY3qIvLM4+Del21C2F9HIVRtua1ib9rFNTlZWZhhrJ+JePHvZpz2g29i6sS/JqPq+HH0p4fV/vNP67GH0v7XX9czZ1DKNxikrS0saAesrQajQcfOnNuke8+ML8cvadmlyLQtLFHKe54CpMbxXVQY2qwvHjS8YxvBAVyI1f0h5CYOnHHcfpeqLkar3WcnQi/Gq/39CLFHF1qEPlQ4RIQtMUmvzCpuxiP+vuiKzkuYuTBh3G+7iOkjwXsHy/fPP3p7bt3nz+Zevv/9Rup9qfP31fN3/8L);lineShape=1;strokeColor=default;fontStyle=1" vertex="1" parent="EvC8QoXtSVJTTWV4gr5P-15">
          <mxGeometry x="3.999314628999808" y="6.860910843223876" width="75.75997844156025" height="35.0994527976212" as="geometry" />
        </mxCell>
        <mxCell id="EvC8QoXtSVJTTWV4gr5P-16" value="公钥" style="points=[[0,0.5,0],[0.24,0,0],[0.5,0.28,0],[0.995,0.475,0],[0.5,0.72,0],[0.24,1,0]];verticalLabelPosition=bottom;sketch=0;html=1;verticalAlign=top;aspect=fixed;align=center;pointerEvents=1;shape=mxgraph.cisco19.key;fillColor=#005073;strokeColor=none;fontStyle=1" vertex="1" parent="1">
          <mxGeometry x="-584" y="1193" width="50" height="22.5" as="geometry" />
        </mxCell>
        <mxCell id="EvC8QoXtSVJTTWV4gr5P-17" value="新 - 所有者" style="html=1;verticalLabelPosition=bottom;align=center;labelBackgroundColor=#ffffff;verticalAlign=top;strokeWidth=2;strokeColor=#0080F0;shadow=0;dashed=0;shape=mxgraph.ios7.icons.user;" vertex="1" parent="1">
          <mxGeometry x="-744" y="1327" width="30" height="30" as="geometry" />
        </mxCell>
        <mxCell id="EvC8QoXtSVJTTWV4gr5P-18" value="Num&lt;br&gt;(数量)" style="ellipse;whiteSpace=wrap;html=1;aspect=fixed;strokeWidth=2;fontFamily=Tahoma;spacingBottom=4;spacingRight=2;strokeColor=#d3d3d3;" vertex="1" parent="1">
          <mxGeometry x="-672" y="1318" width="48" height="48" as="geometry" />
        </mxCell>
        <mxCell id="EvC8QoXtSVJTTWV4gr5P-19" value="地址（公钥哈希）" style="strokeWidth=3;outlineConnect=0;dashed=0;align=center;fontSize=15;shape=mxgraph.eip.retAddr;html=1;verticalLabelPosition=bottom;fillColor=#FFE040;verticalAlign=top;" vertex="1" parent="1">
          <mxGeometry x="-871" y="1318" width="78" height="48" as="geometry" />
        </mxCell>
        <mxCell id="EvC8QoXtSVJTTWV4gr5P-51" value="" style="group;fontStyle=1" vertex="1" connectable="0" parent="1">
          <mxGeometry x="-499.5576784277455" y="1415.4243265963476" width="225.79496457811638" height="199.6010597539555" as="geometry" />
        </mxCell>
        <mxCell id="EvC8QoXtSVJTTWV4gr5P-24" value="" style="shape=stencil(rVfZbhsxDPwavxKiqPM5Tf8jQJzaqGsHjnv9fSk42ljc3TECFPDDepcj8RiOqI08vO2eXrcb794u59P37e/982W3kS8b7/fH3fa8v+jTRh438vByOm+/nU8/j8/X/69PzbI9/Tj9aiv8ueICk4SG8u7v+xtq//T39Wp/2B9v7CWTk8GemUoGAKbMA8B78mUd4COlNAAkkgM7eEc+jiEkKrwOYN3BDYCYKIOgW4ijSylQiOuAQnHcIHNP26J97Dmf7DMJcMhTLIN90Tdg/UB1zFDRDDkQsKc8sqIU8qgGQtl4VCkgHlWqI6A6CsClWMmNNahMMawDslZ5DLpOUS0C1AE3VqFqLwCXaiU2MUTKCQJCsoAKsqSAPBKpJvIVAkqxgIJ3sHXI3clVQB0BhRj0QgOwBSDytaBN4SoJIJ9+jt4CMgb4YAEVaJJ6XNMMgHYolOrMJUS+MqNGhRKgAHE2rXd28GIBDgdtdFWpIYh86pKJIeF+UJ2MFuBxDMUErQ2EueQ+26LvVLsBFEzv5G0MjGLQFhULSEC8G9WSrQPKEjtVMmcRd3TGHBCtNHd0xjS1iiEGmDO3vblTiHmP4ry6MYabPPwnRFnKUwA9lGejhlYCNV075kxiY99z9SA1dApdcFePamcBaL7SYSAaLRNisEOw04+e1Ggec52bN7NDhPaG3SX2HlwOwEprVm7BaYnHjObQZ4/lIndVnKbD3Kehlf60I3HiLrXLgNBnqWlgla6cy4AZs4NAjfHTPDsN3bhm4vrwNfVOgTqpQ3wZszSdR8tFcMRj1RycS9RerD2DIqi9YfU0/q3ZG9nGUqEXKzfzBzUN9wH7w15QvDNWO3iHUXujREwMur7ZV2OfgMCrfR7z4yGnw/xeCAnX/BnXFxK8fmRjXxDfPnkRvm+vDx+37pf94XC9tN9+t7d0fXW94cvjPw==);lineShape=1;strokeColor=default;" vertex="1" parent="EvC8QoXtSVJTTWV4gr5P-51">
          <mxGeometry x="3.2315501467774084" width="144.54762421382156" height="60.33578547566822" as="geometry" />
        </mxCell>
        <mxCell id="EvC8QoXtSVJTTWV4gr5P-25" value="" style="shape=stencil(lVhJchsxDHyNriyCK3h2nH+4ynKkimK5ZDnL74OJiiMRmGnFNy1oEgQaTYCb+PC+e3rbboJ/P5+O37e/9s/n3SZ+2YSwf91tT/uzfNrEx018eDmett9Ox4/X58v3t6fJcvr04/hzWuH3BUfOhwkU/J/LD94R/fvh68X8sH+9MY+uJWXu/bo5939vVg/r5hRdzco+AG/k7xq1fQX27JgHe3IRnba5NNrHHq5F++x1eDIMT5HlxvNW59u6fY2ujNliFyIIP/VwX+0r8J+Li9q+ofWby0nbg3g2coWUfQH5atGlpuxTAvbZRf+J+DTZ3qwP4t+aa3XkD7kKHCLvdQVQgRQVl7gMAOFoBhxqRcdUSNQKDGodDxEzZHWTKht3SMERCBNXXWZJAg1c4uzS6FJOWFeilq3cnAc71ObKmIciXAF5qNmFcQcpvgBSXb2pBeEGg+KXYhvFS8opIoA59MR34FLxWk7bXLBrgGQADQmY6Pl4hhvGL0tkc0x6CwY+CSBHDUAiIICoduB7O1DTAMJnoLFGW+3CswYIIzekajO6SOSIJtV3zlBYAxA3BNAMwIOCkFTrsOZ+e60BiqUrJhMblypyibrHN2FNQO8FYBMXkEsCUAXB+EYXl5IGVBwlNvSGKiA6UzSAwaUrAE0+yT2Q74kawQAwW3WmZ7ldLVHWACTfUwEFHdaIATbT+c4Oit4Fkm86Q9YAVA+TkBl6o27j0wAhn04c9cwsA3Jn/3wF5d5NLANM4mrtLe/yrZh0PcgSqP+p3GVrBhBUDSZNPukd0J3F4pJqZ3A9TF3xKDMpQWrwTOa5w8IXiqSpjS5FD1WjJX0/yGSC6C3cVCJAUg+o1a09iDMgQWrY3lsAqERtcy8AQt09dY9nQOw3xup4EjQgo8RJlMwOSIzZ3EACIACQJlJ1iRR6d71ccaFPYDcjB0qczKC6weoN1NqMG0eyVqjd0wg5SkDuQ9F/zuh42rBvAGKPUqAHrOwIuGMeMHJP+bI3Zs6A6fV6tMrwNcWMDMkxcMZraUywm/c9EFdzFEhvROvO6iruQlSgWAvmqD01zuA52xyVYFtnAonV1qRJxiS4uiKBh5z55AvcXXP5cH3se9kfDpe3wtv/9eOg/HR5WIyPfwE=);lineShape=1;strokeColor=default;" vertex="1" parent="EvC8QoXtSVJTTWV4gr5P-51">
          <mxGeometry x="60.706584367744654" y="0.8960675456401077" width="139.95465075687252" height="56.60597798212871" as="geometry" />
        </mxCell>
        <mxCell id="EvC8QoXtSVJTTWV4gr5P-26" value="" style="shape=stencil(rZbRbtswDEW/xq8ERcqi9Nx1/1Gg6WIsS4o03da/rwzPq0XbtxiwN8fRsUjeS0qd3r0cH54PnfDL7Xr5fvg1PN6OnX7pRIbz8XAdbvWp0/tO754u18O36+X1/Dj9fn4YV45PPy4/xy/8njiNpDJSwm/TG6Ewvfg6rT8N58X63iiUZn2IxP0+YD2l2G6QKfE+kBNZC0QlS/tAiZRSA/SFCgIKpTZni2RlHwjMxNwQY5QgiZJ9TMVIDABG1sZUPxFQEj1J8kABQpRAfVvXWoce7FBTLCugAG/kMAewBEBdzYiLBywDQCgnDwjYIZWNsvZgh2RUshfOFALZVSlRRkAhbb1UpUR2rUmLeECADpZIXA4RurUKx+aBCHKo1uDVDhGZj2ddlyF90tTFJ60gpCqTFq8DA2uMLRo8UFCLZhIHVO0RUHVw1shkAQBCxVmjmgW4NeeNnkbmy+pH32K2bZtpPcnqFqhHIwXzQEQA+5hqmf701HYH5ZXUmRj3qK2UC/8VqDq1wMcxtpdDahuiHpQBAUra6pAYlrXviduyxji7ZRMYj9nWfYLPUaljqJ33IcHLA/vzIcLhvTp0FcbPfiYJnDDB21Tmem0uVxJtcyVFcs2FmJfXAYhGhXcDw6+HlVR/k99eb77yuOnHS6CPJ4DBNabrv69A2TFfdetRx6tQZFd9dD7966328/X14eMK/TScTtMNfPm/v3LXV9N1Xe/fAQ==);lineShape=1;strokeColor=default;" vertex="1" parent="EvC8QoXtSVJTTWV4gr5P-51">
          <mxGeometry x="144.97024284405234" y="53.850895417918764" width="8.36541664289598" height="46.253324863599346" as="geometry" />
        </mxCell>
        <mxCell id="EvC8QoXtSVJTTWV4gr5P-27" value="" style="shape=stencil(lVfZbhsxDPwavxISdfI5Tf8jQJzaqBsHjnv9fbldyF5RuxPkbaNwLA6PIbULD++Hp7f9jt379XL+vv99fL4eduHLjvn4ethfjlf92oXHXXh4OV/23y7nn6/P899vT5Pl9PXj/Gv6hT8zzgdKPKHY/Z1P9CD+P/g625+Or729r529d1QyADAl1wMqJQEAT9zfwEKuAIAjHztA9JQqBLjQAVLEpB2F0gFyouwgBwMogRzDsDrfAyp5RFod6EnXRAFxEJKetCgrEKUg5HMP8K1WVgEaxGpuYPJhG1Dc4JIWS9oGSKDKFhDBDZKoOgvIgIMUSn3i5Fbw64BKknpAJIc4CBXpAQlGyTstV0MiU/DwimQyVyiCYlISRgT0JCLWmcSQEGLEWjmyBWR0Q1gBFHSDt8KkgAhSXTVKwZJGN9RKgW1YK8hDLY3iInGI9AQYaiMCrZxcMhxiU55N0qZcA+4gVeOh5ZDeT4lLFhA/KI1sAUhnNOpucEmQS7Wp+4J0QaRlUIEIS2OtRxMJ7tFiakNpgVRPQjOUK5oQk5QZ1tLm3lYiSrEANEenKA4qUJBLnwXohLAjReCEmAZ5Gm4AYQ3V1vcil6sI1lLwg09o8qZBmUobGquA3NadZQehSU3RrAIZ2nObHrddQ/By0n5tsczAVaMV8mJbQpJx20OW6xjwf+g13fcCiKdr+nNbKGtbCzbsiykJLRI0oSn0fHVfRKrtSXq+gRg0ARP3dLUaQDS5KdXNGyqAbGihvps7kNtIuRdrh3fCJoJ3c6RZxa7+uBUr5WLN4SZll2xHjJ4uOvusfUY7OQ9aQoz6RMdWMfaC/NdG7/3hVqlb9p99231grx/3h+TL8XSa36HL/9uHpx7Nj9bw+A8=);lineShape=1;strokeColor=default;" vertex="1" parent="EvC8QoXtSVJTTWV4gr5P-51">
          <mxGeometry y="52.625081068912095" width="30.02720125290716" height="50.76184342196257" as="geometry" />
        </mxCell>
        <mxCell id="EvC8QoXtSVJTTWV4gr5P-30" value="" style="shape=stencil(lVjbUhsxDP2avGpkyzc90/Y/mCGUTClhAr39fbXNeInl7KG8bbJHa9115J3cvDzcPu93kV9eT8dv+1+Hu9eHnXzaxXh4etifDq/2tJPPO7m5P572X0/HH09359/Ptwtyefp+/Ll84fdZrmSKdZGK/Of8T6Oc//3x5Yx/PDxd4LNSywO+klSAzyRhwBeqBeCZNDq8yDY+JZLk8DFu46VSjk5/BvqIUArOP5y28VFJyoBXKkD/mIlH/4dArQEBptpGgUQ5bAuEQtkJmA8UCEj3YBewMxXEOHDXeBVIVEEStf65Fa8UeBtfqY4xXqICLCikoz7SKAAXWUqOBqdIAQR58miyL8Dvp1H/HEjh9xOP+EINBKBQcTUWKIOktpSXEW9ZCOJVvT8rQ3zrKb/iMymIr5WI60GBGNSAlYg7oCVocFDvodYogghI8CarJTkIcbK2OcZYhRjYXCzIow2aemVfd2qgONqgGQqYxi5NtcBet7xuXqUI8s4EmnijFalUqUxeUtCutfnSMZUYqWSdZHJrApE2gZK9ALRBSbOPA2rxi8AUBzTTTKC6GVJhLplAVC+QkZemCjUBBR3VXjenkhUQUqn2Mfm/AsUTkUUlZIN5PU5Go0hnCtXHQUEbWxKheIGIUsPaqFMp9xrcEpApW9FkMAEfh9QJypZbc/UCsAmsfO6yRNEJNlunrgGztfXvXQgITu/MXgB2PvWExPyWwAmBuat82StRQegUiPKeTmnKb0EntD7zLwQQC/i4AHcWtTLDNz9cn0ET01uaG2I+lq/qBQLQKVVPb82ICpqlMBV3QoatzNhvcKGWvtNssRmHD5A7JB8G4xqITUavT4uwHNbTV3ZV4IRjz7aNvTXgUcuKcb5ZEBMIGft1wdhnhXgey39ht8D/7JuqsecGAjyVsrFzRA65R2fFB7iicl+Q1+2i9p1vI16uoUrsHXMjH+qY0Ma/A/BPmrap+A47d/63iogAH6J3qG2IqIbnjVP7qL5ucJgyqNPE6/iJKghcmY3Mu30Kr9hSPIdkmBAp+RmLu6jlr+txDAssT/tj6CVxvemavW7jh6PJVhF35xJxU6++5Vo+AP+U5u9EBBak4dVVMJzFRTsre8PDdXwaxRlO4hmPucGij8ejhmj2uiGJmcHiTzcB4BK1xMvf8QnyT/H+bzhe097YYP1+9M7xfbw9vF1w3h8eH8/3o5fv/YWo/XW+TJXPfwE=);lineShape=1;strokeColor=#b85450;fillColor=#f8cecc;" vertex="1" parent="EvC8QoXtSVJTTWV4gr5P-51">
          <mxGeometry x="34.656679177599926" y="86.44661836194769" width="62.33542285090425" height="72.9237375179689" as="geometry" />
        </mxCell>
        <mxCell id="EvC8QoXtSVJTTWV4gr5P-31" value="" style="shape=stencil(rVjZbhsxDPwavxLUQUl8TtP/CBCnMZrGgeP0+Ptya2htcb3jFuibs5lZieTw2k26e39+eNtuIr8fD/uv2x+7x+PzJn3axLh7fd4edkf7tUn3m3T3tD9svxz2H6+Pp7/fHibk9Ovb/vv0hp8nXiCRiRT51+lBohT+PPh8gr/sXi/hTDUM+NhfcBVv79c04AMVgE9CbbwPU9F1fFaq0eGZ1/ElUvLv57SOr5EKO3yqAK+k7OwNeR3fhDg6fzLwf2vUisNncH8N1NThK8IXSuzwCu6jSm3UgymkgYAFngM0M5SkwSOqM0EpgCOMEMcYZ6YARKHNn2CyCsjqRjKqWgTK1AhhvFIRyiAPtJKMV6qJKvJS8YFuFgigPLX3jUpqs9+uE5jiSFBLJnAl07Yn5K6WteTh0QazqiJCothGQoM2lNazcSaY0SAfSvZamhRfACF4aVwo/ipDLHLVWx2B1UZIjiA9a9cInHwgkL5NzTpmtYUaqW86YUxqKzyoLsmizkzywkbXMdQ35Cq1i3MmNCogIaQRiydkEGojuN7T5ifXCeqNNhsSKBtGqOK9lFF7Y99OLA4FydUITksJNiC7kpdGpoQibdXdpZyVPqQlXdhQ8AnNR3oqhigfqh9iJgKSRiUunnBD3hK90VB8hUL0bhV0gvjBygKHKtlEcHEIvfCsXsm5lXtTWiOUhbyhDZXCKL5pvMGBa8kTMrLBGjV7Aho2THwuDm1+8n8I1lG8vCMsAqUuikDsSbs6szq1ch9wrhOsaerCSyAOLZE6glBFhNa1ORNiH/SvDxvRF+OKAzeVrdGtNXS/rRHcplFwIbOELG7oy9gG8bU1W6VCI5mQjHUpaU+pNUIZT7DRGM0aS4IN3w0ZLb7tThsgaCi6WCgVFo1zPs7KoIKGyuzH1gqVZzOlw98YKW2fHfHStf6XC6XAGSAvthnDg2S2hVj9/VEeTPvjwj94oXcLZYOCCIvWCffDQMkVO5gyTOrFU8Dbuf/3DEeLIff8vpAaCJUtjcl5UoFnFqPX3N3W4GNnKnCZMviYJgLTyobpsdln2OttqnQLMJytuXfp80cjpOFAoTg42n3/9ZPULbj9OH/9etq9vJw+nl3+338ts0enL23p/jc=);lineShape=1;strokeColor=#b85450;fillColor=#f8cecc;" vertex="1" parent="EvC8QoXtSVJTTWV4gr5P-51">
          <mxGeometry x="31.211166285972013" y="117.01105866194257" width="92.40446374662679" height="45.81837517274471" as="geometry" />
        </mxCell>
        <mxCell id="EvC8QoXtSVJTTWV4gr5P-32" value="" style="shape=stencil(lVfZctswDPwavWJI8AKf0/Q/MhOn9tS1M47T4+8LV0NHBKO1+2ZLWJBYLA5N4eFt+/S6mdi9nU/H75tfu+fzdgpfJubdYbs57c76awqPU3h4OZ42307H98Pz/P/16WJ5+fXj+PPi4feMC1T8BcTuz/zAkXP/Hnydzfe7w8LcM3Gy9mndnhMF6z/mdfvoSMTYF+A/FRJn7CvwX/R1f39PyQN7oVqMvfC6vUSKvf8A+azcXl/9O8oIEKn2hHohVwCgkAsdgPVJBQCh2J8QpCXlc0Bt/hog+cbaGiDkDpCVNhR0pcQdoCTKQBYKKP0Jmhioa+dsIpTpiIMofdQ1EwcI8L20NTUCtKeJ4D7qC9Moak3sABDEa7LVv+BhTX5xOCKDgqiB2NAk7dC1iojB0hRQ1Co2A9CwUAxawr049JIVX4l7mvSJRyXEVGMPcDhovUDPkiitSEyJOFoA1EamlAdAhGISHq6E5SrFBp1x38g80AqatwJMM1beBNeoaZbKW8YnWHmr+JC8hZK5kuCgC0UjjRu0ZvJmYt2uURmOgI0mUB4AcKZwi3HZypCYuIlz2SzRCX6IIcJB/f+AYfLqiPAo1SrOHqBDCAbt7a6hYw7mwbeJcx2k3Hrb5wBnR7XuTxnQ+tEkrrPdwTxIoWS2B4b6VhKTkavSCljSDSv3J+gGxCAPusKZxqTrBLjRuCJWeKFxBa1w/owrbm3ldOcK7fEOPazoau9B/fPITwXu/dBU27K1Ys59urTtA4k6m91CFXh3duXJsMSGpQ2398E8tmZ832V0l4HeTajcFr77iPSwEoc0OUrA+yAC18bIfRrDI+amuf74+OJ82e338wfr8r39QtVH89dtePwL);lineShape=1;strokeColor=#b85450;fillColor=#f8cecc;" vertex="1" parent="EvC8QoXtSVJTTWV4gr5P-51">
          <mxGeometry x="68.20014074776964" y="86.87928238287145" width="47.84121141808146" height="35.401949211027386" as="geometry" />
        </mxCell>
        <mxCell id="EvC8QoXtSVJTTWV4gr5P-33" value="" style="shape=stencil(lVjLUiMxDPyaXFW2Zcv2mWX/gyrCklqWUCHs4+9XrikPsZxp4DYE9diSWi1pdnzz+nj3st8F93o+HX/u/xzuz487/rYL4fD8uD8dzvq049sd3zwcT/sfp+Pb8/3y98tds2xPv46/2xv+LjhP1TdQcP+WH4Tc8sP3xfzp8HxhHimnwdwHSrxtnymU0V6opm37SnG8TnAU6ra9Z3uAOhDAAT5RHD1oZ6ITMmUZAOyoBgCoVOsI8MTghMDEwZ4QgQ/qYqqTDwUACuVoASluA5qLzgIE8IKZXJ4AGQAyRbaAipjnKJsoBQoIoFwdT2AhD5yOlXikhl4SFUOKxIYaEV4padRlygOIksTOzRUQyTkAqOTHAlI6FkC+HCiPJyjhUT3kRGxKOnZ2XQfkzv4LzYiyDSiOZMxDhWko0TJDqICgFhWlbOwT0iRHLhl7RO2qIbWaipJcI5WRFYkK0NSae0a7vcP3KT3c7/YBCFitnWIrrXsAtuzjGM9CBdsXw1GtM+SwKsMk8hl7YABa+khcFGCqIArsa83nUVFVDGCSC1VDOs0CqOSWNcPqQAU5nXvULwAe1JkCeBTIVGCzrWK7QvKwKyhAxkzHgKmtUTfUC5hLMilqgGqkAEs+hq1QoxTGKwmunmyr3+P3F6tGDiq82hc2788oy9VmWZOCa8feP5JHF9JiM8MFw3nHOzcJDH9UbWWMUWQ4IdW1ra5M1VrAJ3hTz4UEp81QW6uNUS1cBaC4Tm1BVCZR5ua+I306/mxj0wkJAK50ToE+XGnNAtldQh9kV0CCMpm1WYkN6wfzixk807p0bE1Itj2v0rw1g4WRSyr1Hk95ItZpJJN6YxPWzH1m2ppUja4W32fXrVnYdJ9Setw+OW1XVQHg9DzPt34EMj1vDPWrO0nTkS9tPU3bwJXmvaoBQFjnze1CDDeXw7Go2yQBAH6SY40rYp8OX2LiqkUNwqQrtDeZwxuAzvvmI4MqDxxlyI0uqCw4EFaxLredA+hY7P6t9gH2aG+rR1UM1afvDfOinh24j7M0Eg/L2U0SpvMwSLGzI0zSjQFo5NQXtN1mbG/6ucANb3q/Zhx1Z5VPswXr6g/tTXw83vyn+HvfJfxz+dXRG5XkRB/Yx7/4Se5Dc314//r3cHh6Wj4eXv7ffi3Un5YvjXz7Hw==);lineShape=1;strokeColor=default;" vertex="1" parent="EvC8QoXtSVJTTWV4gr5P-51">
          <mxGeometry x="27.65926893284086" y="97.91113305266731" width="124.17238367504888" height="6.920375735722928" as="geometry" />
        </mxCell>
        <mxCell id="EvC8QoXtSVJTTWV4gr5P-35" value="" style="shape=stencil(nVnZclw5CP2afqWQ0IKePZn/SFXscdd47JTjTJK/D5ouXV8h39P2vPUCWuAAB3SSm2/3n7/eniJ/e3l++vv2x/nLy/1J/jjFeH68v30+v9ink3w6yc3d0/PtX89P3x+/XL5//dwl+6d/nv7tK/y86AVq2pUi/7r8ECm0/3748yL+cH6cxGubxCvlgMRLnMRDohCRfE7zaSIVgevXSV6YNB/LR+I8yzdqjOQrT/KpUajH8kIymydXimD9RBwm+ZJIC5LPMpvf/Afum6jN69dKCuyZKc72VyEG58mUZ/trpZSQfJvXb0wF4Kd4PLRECcgrxdn+zXYE5w8GuBn+rVBCgDN/ileo4ETdRM0rqAIIVQr5IzsYJB2ITEFADBemsFw6AK+VRsKLWcGRaiZeFBTEfVVK0StUcAflESc7hYIUZFxxp5CRgh1g2SEDx6lS1eVIwKwtjNzzTisZ+NUpFGK0Qx1/7z0N8oUp+DsIKUh4ppCd4xhCwxTibFZLGYIVeN7BXCnISlu4bEnPIgTdofisUS3PgqzR3TQnAYuQisyax4n3eR45Lnl4ZytUAK2mIHPWyLYnQGv36wyNHEZqO1JwO6QKA6hFj6WUIFkwBZnNmqy+g+rZA2i+gyhG65LupcD6ZgoOrWIFEZmVR3LfGEwbHOVIITmFMtLzkUJYOFIFjtNGOsdDaNAPppDmeAgF5iXdSNGO5gk6kvqiGHjE4JGCzFaqEN26EIE40Hu4/uxnjLx+gfk8lvXwhR0RM7ej9ZsPBYawM3nHy3lU4CMQOaJnqEJxwKOSvcrDDMk+MgNkGBZnwWEU58ewBAHkkSbvOJJlM7Q+j3z+Kt9wFDvinyCNNH81l0ypYP8mv/4Vefbrw/PoWO5999WFr2F79viamQv2V5ef1w+wr+vncQkF4q1zNR8vCM89w3l5FC8mv8TLlXgM7OVxEXC0C+eTtrXF78tXPV5cRr9WiZd4RPn2/8g7xoXz1bJ+G53zITFw+V8g2TcFdQAt44hH5IYdQhUT5ehLXh/NIN4bPe+13jNhCuiMalaCKDWbzCiVSAmlRfE9lGTYvxuNdWTfGB1kQ8kX+sSwvTaFMlspyRjyHHF35zjjvYzukH0uylZNkOOWqUhO+A7F+8G6g3ylD5zNav3HlaarLB0OGmQ19XORKrhhWTJwVRxxdoDZcRrh7M4UXI7UAodrbSFRnZyjYRDzMucQqNG3cP11xUTHCpubBjUcEGUZsSkcgVlA1EXhytjCj14UZoE3BiOK2XumWpcdUPmXZWamcA7Zx0fLDgKs1AdUsigA9PURWPzIDmWh/KaQwQ6FR0TuFNDMLC2ksGMJoLWPItUrZODpN4adDRa5Pk4NiwLYIYQBtdfOEVOr6ucctoMCK+UBnJ1VEZVMy5UznKNYwXLIM64F5Z3TtMJ2X3zs9HEZcIH4+xrUGdhnexDY5OPoJd/GhB/hl3zlhanNcZMrrG2B4ixvME8gzow5u84IU232qUV4nPBA3pWE3uoAfLL3b9g40NF5/AucgIBh30htT2BH4n4OgsDGHjwBlj9eWDZk8Rtt2jUtULz5HgpNrcLaclX0VOQ7WB6BdiCefMOIJpPWXnnLoMF+8A8BYWSVo5jy05UMQBBGCt4139AyH3xCviJuH15fq+/ODw+Xx+79//512366vIzLp98=);lineShape=1;strokeColor=default;" vertex="1" parent="EvC8QoXtSVJTTWV4gr5P-51">
          <mxGeometry x="5.263663221943261" y="96.2773501773147" width="170.47870047854485" height="103.3237095766408" as="geometry" />
        </mxCell>
        <mxCell id="EvC8QoXtSVJTTWV4gr5P-36" value="" style="shape=stencil(lVjLbhsxDPwaXwmJ1IM6p+l/BIhTG3XtwHH6+Ptya2hjcb1T5OZsOJZIDjmz3sjD2+7pdbvh8HY5n75vf+2fL7uNfNkw74+77Xl/sU8bedzIw8vpvP12Pr0fn69/vz5NkdOnH6ef0zf8vuIiiUwgDn+uD5qQlH9Pvl7jD/vjTXylUId4VVIQH5lSGwGJSgSASjWPgEAZAJiplAFQSz/zPqBSCiOAies6QGJPsQNKpZYAoFDlESAUZB2QmCQOgFwpgxySEjsAU8zrgCxUxrIma2UAAEtxZIZdsgJA4U6cDhA7AVTJishpBITeyvvcC8RjDtZKBmWt4qnBgk/QnmIHRCUBOahQHHOI9gScoNZXx1ZIJRvHOOYciRnEJ8+kAOe5ZSrs4hEtWqFWXHwERG1KUV28ovjWyze3jALgtcXXcb8IZUCJGOb85snBCdgBYwKFFF/INUz7il0t0LhRGyXFDXCMC73Eqx0OHiAog0Tc3I0aqtBiBqwEiKLztv0YAUUjEKlW1wFGCUc/xKlXYO0+TtMY58uk42aM+PuF2nifAHe7NWwxMgGNcKG8GGEUb+X294H3N4WvPl/U3+ZXiokfEHCLb2O+1i80Mc3Xs/Sdtxbv9R5aFsvX1bN1gq/Gy2firRzjfMVMjDRDKTmCBmhYTJXcyNuSS6BldbGlTYozOKEmUgeQPhX3xb75pGXe3PcBaWFYct+U9wGRkjMsWLtz6WN+46ESAkTKY9JmkgrYpHZj56HMB6JdnYJ3y8WGD3BbsueqeR6kr9ZXdQCF02PM0XG7K8PxN246RdYCAXGRQwuwrJPgOcFJUEESpdFTTCsB+Xe/4C1eQQZLExiwizKeZX9AA9xeKODkSpDLWXiKRgLuE7xPbgq9fugCPMdXeP9ZkG7i0YpceLSGJd8IMZrehvedGSB3/wQpGrxiTpqOKP3Jt+r/x9uHj1f4l/3hcP0F4Pb//pXfHl1/LpDHvw==);lineShape=1;strokeColor=default;" vertex="1" parent="EvC8QoXtSVJTTWV4gr5P-51">
          <mxGeometry x="149.56216145165445" y="51.741340234745394" width="61.67311937841214" height="49.48981462523875" as="geometry" />
        </mxCell>
        <mxCell id="EvC8QoXtSVJTTWV4gr5P-37" value="" style="shape=stencil(nVjJchoxEP0arl3aWmqdHec/XGUcqBDjws729+kJkUAteNi5wYze9PZ60yrevW4eXtar4F7fDvuv65/bx7fNKn5ahbB93qwP2zf9tYr3q3j3tD+svxz2358fj/9fHpaTy69v+x/LF34dcb6QxAUV3O9/Tyj6vw8+H8/vts/jeeeG84mE8XkZzguFCs4LxTLq44kBIDhKPAISMdAoBKp5BKiOBQCY8miCKlkBIDoKaQCoTAecGtWHo0rq1QpsiF2BDihUgYQUiEeVVEkvAMBUR17EQALikISckcAkwEusCtQRoLF3ABBJxjgkTxlJ4Pa6AxJ54CUWYj8CMpVwHZA9hZF8qVIBXsrJconVrUiCUBqpoVZVIKF4KkZCpZgBgG0ccqCUAEBIxkhn/QQInATKI5dyoQACJ9yo1gFKeMDWqkQYvVRCi8xlQLJGF60aIA41kxsjXQqsS1Vfj0aLJwfiUMWmqKRWm68BTKRFKCMbpBWVBlC/VRC4WltCdkCiAgLnnbPtoXa2XBPBYyD0SQA5qt9LzgIYScjE2QIEWZ1sUiugosj5ViR6gzj54TLB1cY4iQChk2KrqwIKIIemUJz8irJayZYmqx0guAIsOZSQIHIKqGIBESSpZEreAhyyQblh3KrjDSKTs6VMARlldZzcegPAjWvvVWkayG4YveRL+YhbF6qxBaDALfky8vsGNZacFwtA5FOj53xAjVfd6uYcRQAdgMxceSNHlRtzyqEyoDlaJjehQiN9QHpnKdMMyhMAFUsFBFP7cDn+H4Dld2pt6WoVMADfRs2rhWluc0hCbBvMWSNF08PSmKdWjZYgbf0mcPoENVKdsZwBJMglHV+Ml8rNOVFGo7NyCRids62VucBxI0ebozr2oUWL+yh8NlgiLvG0cyyfQAO+pzRK4Nwm+MtLymS0LhVoONYNwwxlurag/TVOlSwVisDoZa2alhT+0Hapy10AgQuZwliXdNEqQKXQR+EO6NPvZUAkP9oQI2xBoY/CZ+soygfduO1Krb0e5IPnFqYO4DZNXAaEpvHZ0g7nyjZr94ai0zJIuPmipUAfsV3xvRZWRNV2xXB2cQKjPF/MIHWcVR/f+0x7AK6ozrYdB5dcpU8wxwsov8GSx7UycDnDmmWn4wFQjVtYTscd5oFVBo4hzRHvO+6nsGJtfLRDOTZW84qtPsiXPtu+hEOlScFWH8iEj99f3jivP06XpU/b3e5413r+3l6u6qPjxWy8/wM=);lineShape=1;strokeColor=default;" vertex="1" parent="EvC8QoXtSVJTTWV4gr5P-51">
          <mxGeometry x="200.43716520945418" y="14.241007065762005" width="21.202994426257646" height="143.3423170450419" as="geometry" />
        </mxCell>
        <mxCell id="EvC8QoXtSVJTTWV4gr5P-38" value="" style="shape=stencil(rVfLbhsxDPwaXwlK1POcpv8RIE5j1I0Dx+nj78uFQTli1mMU6G29HmrJITmkNnL39vzwut1EfjsdD9+3v3aPp+eNfNnEuHt53h53J33ayP1G7p4Ox+234+H95fH8+/VhQS5PPw4/lxN+n+2YalqMIv85v+jJ3nw94/e7lw/4QsITvjXicB0fhFqdDGqnBgyiUOizAVPI1w1EiPNkUJi6XDdIkfIcc9Y3wCCz/W0GKVPuwKAaJ2YgnWoBrEY7bxgkKsClUinMLsVOHdBag5E4DDLVCgwKpTlxWisZxNCYeDYIhVoEBkJpdikEaqD2WvV5KJbJVXyPlOZEBxKEFypxwjMlEHHPxOzwDALuxfszKFvHV6rN4Qs6v1FnFy8q096plDnFdsB6LzP7gBMJ/oBr/gw7U/HR9T5OWCOZE9asaK8RynPA+kFEaKbi1JEyIEi1MwZ/PvInGh0X/3MD+EA9On4Sxjs+CzHKl4rE7H+ijPwPlv4hW0bwtXjd+YEq4l8o+garQOSU/+wbOCC8lmNxeEb51XL0eEH8N1PMS7wR179TRFUwjO/J8d+QP4r3/ZgQ//2z4DZUP43KLFjNxtT/wScKbsREqHCt20AZBtUoXjfIFGePbmhiC9ZRw6BY063P1UzidgOGu4FObrffyCjz9d1Am3zOmm4fAcSg+1KcWUpihbW+3+ignF1KY5Ssr1zZQhyFV+B+I8Um76g8HbbAJWXdS2OyRXJ9mFU/m3QfQRtUYNOqIe4RLqbZZsvAN7yXUpkr6SIHV/CuLjrerMWL14d5vs6pn363DIKXo8UjUKnBXyaWiMG8YV9FC6Og7FSds8cLyAD7XlbBRwvXp3VIN7wG/eHm8Wges3k78CoemJ9/uszdxuvD5eb4tNvvzxfPj//7m6a+Ot9S5f4v);lineShape=1;strokeColor=default;" vertex="1" parent="EvC8QoXtSVJTTWV4gr5P-51">
          <mxGeometry x="172.3023265188549" y="146.07742107754711" width="53.49263805926148" height="50.05566474879106" as="geometry" />
        </mxCell>
        <mxCell id="EvC8QoXtSVJTTWV4gr5P-53" value="锁定脚本" style="text;html=1;align=center;verticalAlign=middle;resizable=0;points=[];autosize=1;strokeColor=none;fillColor=none;labelBackgroundColor=none;textShadow=0;fontFamily=Comic Sans MS;fontStyle=1" vertex="1" parent="EvC8QoXtSVJTTWV4gr5P-51">
          <mxGeometry x="42.507678427745475" y="162.82567340365244" width="66" height="26" as="geometry" />
        </mxCell>
        <mxCell id="EvC8QoXtSVJTTWV4gr5P-52" value="解锁脚本" style="group;fontStyle=1" vertex="1" connectable="0" parent="1">
          <mxGeometry x="-868.0421122817484" y="1515.7784389319406" width="164.35487180515042" height="59.733924878525386" as="geometry" />
        </mxCell>
        <mxCell id="EvC8QoXtSVJTTWV4gr5P-47" value="" style="shape=stencil(lVjZUhsxEPwav05JmtH1TMh/pCoQXCFAAbn+PrNxjb0a7TbwZozamqN7Dh346uXuy9PNIYWX1+fH7ze/j19f7w786ZDS8eHu5vn4qp8OfH3gq9vH55tvz48/H76e/n76spxcPv14/LX8wp8TjpliWFAp/D19ExuF/P+bzyfA/fFhBUiFQh0AKVEqABAoxRFQiWUfEDNxHgBqZAoAEKm0EdDtzk1Ao96H85JJgAuVEg/nc4QGFSplPJ/txp3zMoa0BGogB51qGs+rvyiiQnF0uAq8IEUKMgBaNBu3AZ1kpFGr9s0mgBuV0eeeKLR9gFRP1J7NyE2AxpyTBySUBZXCSKPOxsRtWgQf1tYpI4ASYzSp6Z3AB416HZlUMxRbUyqN2imFMkhcVx9Gk3I19m4DEvVRztKJgdi6UB25JOoVAmhex7Bypohv8BWmUwDkUx/iaFJiy8x2WDvFMaxaJTsIa9M0jfRWDaKS0QJ1V4cDZWCSconHGyp1oB8lq1NogVxVNRRx55E+lTaxuPOMzkdrMxf7C4ioFKojK7TkAOlogXHSieeI7QGcQbFaErcB1fNUAR3VvGycWbEIkYK1SicPiAwATHXyoaIbErXqo9SB/BWQxiKp7RrxTgGulagSGgqritOZxFZB9gCu3cYEC4xGyfVbnSAa8kFIugcwilKmwh4Q0Q3K7jbdgMlXJ5M6crpRblOUUFi1hpYpD8iH7vunZvoNk7qjt9YYUPMU4Fq60hsVeo2SsAdUJKBieV0rDkUpm4Lfr+m5akDysUl+XZewHkR8WBk5fZ68VppOoDcsAOeDwA69mDRxKWCTPgaQYBaf5xhL/fZ58TVAiwKgng45XqAm8e32VqiNIQpwcCvi1RYgs2u0qns5n4E9tfvRU6smmkeyXb9q/+h89zvVMr8AWuvQ5qsFHjB6tXni7EHEW9K0k+jiJ4ClMQTvtMpbwMqgVzj1S4I1Up1wYs4Bjj3LbOt4/ca4HczHc+KaTXJ7mc5ux8CTmFLJzQy6dTDiavJLiS5WGZikYuCxgmncGlCn7npuA1jlclvP2abf8xWqEFTzpnm7F1gBVDDJDazKV0S/6gdQTU1B7KM0Sro2aqgxUHavAMl+YfN88BO07pIRxHRSTwmW+J3z2WkBb/TRD1ValFHNZmpOnAzbWvEr2GUa2Ht3CtPeWYFyLn14tXdG9HaW7PfWvR+Rrvsc65RX0HQRTLorAHr04DiNhcmeQfYATTwAvc5p7599gHnmadlOlvo9gDeJ8YQk1rxXALj1CGVXkAQvYjKN5xm+uC07ybTfImooIE6AjsoFm8Ur8mW09Xz0LfkdAP1webq+Pd7fn16+1//3T9361emZnK//AQ==);lineShape=1;strokeColor=#d79b00;fillColor=#ffe6cc;" vertex="1" parent="EvC8QoXtSVJTTWV4gr5P-52">
          <mxGeometry width="57.0153624108641" height="57.93118310024897" as="geometry" />
        </mxCell>
        <mxCell id="EvC8QoXtSVJTTWV4gr5P-48" value="" style="shape=stencil(lVfZctswDPwavWJIguDxnKb/kZk4taeunXHc6+8LVUPVgOpN+yZLXBPH7oKc+OFt//S6m1J4u17On3ffD8/X/cQfppQOp/3ucrjq08SPEz+8nC+7T5fz19Pz8vv1aV45P305f5v/4ceCS516m1Ep/FzeSCPh328+LoDj4XQLCOPzAFQhqfcBOVGuFsBU231ACdSCAZQCd6iJ2O4ghVoBgE6lGAA3YgAojUoygFSoC0i6U+4WIDBplhHxGlKgBJKe/08MQAvdMwSw3aFo3RIAZCri+9AQNRIVm3QNsA9R+2DJp9TooEpRRoo35IM7RGo2h1qIA6CGb4NugNqQfVGVjDAgqjaB0olBTVcSrOuFAiBeoGBboGrKIP5IyapZpRPAeh5KXNcriSJQDjW7XpWBtBwDVQdoFFFB82aHRglEFJtvgYZUkQ7ixiITCVJapiS+qMheZmk6x9MydAgItm1F8A7sTVh5V4AOlEh1I82A+lApbaTJSMtMyXrqLE3Qh05R/AYVUEkoi8+goZRJbBPUvQogUvAzYR5TUMrBNTmNN/++HhGbmm0AF2ymOsmtV6gfZ+Atao6OdQKFMw9BG1GACWt/nG4SJUC5plblzJQCiCeGTUlVF8ite/MniyzQ7jp70kkfRft7Dky8YSlSQamepk2ooAlVhgwHoAscOdpVN5VvCndvaNocehnHnzvMluxTgEdIKq7PGdpjZD/Fc8VTRwbRbvoMAXWY4QrIWJzqXm7qJKhOlbNrmwIEjSn2x7W8nsfu9blZA8v8nv7rJmnkwGrZ7nSU8UmeN5cLHeYVhMR6frFqkEgRnbPj4P4KYGhiGlK3VdJhnlAf/vtG9T5AH/5c4F4Ox+Ny/7v97i98+mq5LPLjLw==);lineShape=1;strokeColor=#d79b00;fillColor=#ffe6cc;" vertex="1" parent="EvC8QoXtSVJTTWV4gr5P-52">
          <mxGeometry x="15.198390574036011" y="20.431224612232654" width="21.14137774371943" height="18.922606501542077" as="geometry" />
        </mxCell>
        <mxCell id="EvC8QoXtSVJTTWV4gr5P-49" value="" style="shape=stencil(lVfLbhsxDPyavRKSqOc5Tf8jQJzaqGsHjtM2fx9uF7JNbjVGbus1ZymSMyQ18cPb9ul1MwX3dj4df27+7J7P24m/TSHsDtvNaXeWp4kfJ354OZ42P07H98Pz8vv1abacn34df89f+LvgPMU6g4L7WF6USOz/vfm+2O93hxv7TJm1vSPvxvY+UcsKkANVAAjNnigJgMeAmMlHBYiecgUheKpFATgQxzFAUuJ1DJIGBzzUQDFogHgAQddC3iuArz1v/wc0qgaQiMMY0CSGpusAT9QKZe3AUWjAvlLIxt6Dqol91WX2lEBKm9BCnydSQudvVHS8lRJIqNg3be+Z+A5As0hKxihDcqKkScG96iMAG0AhB3g659RpgPgsEOCNEjw5zIqkic2OMqJdpmaUUCknCIhazSHBhiQAbzw4ashDWlVa1IxjcIaqkiXE7dyZc9Vawg6qCQFHUCjqOjsqqGq10+ZqD6tce/+82jcUb6OgiSrSwVrOugLlnhBatAUoIKHeXQK8qTFCiItqtCZDBPeXZLSW+idGSTW0E3FC2tWexBut3VEzty8Bks0SyxtUCGf7RZSpAJghc41Xs5kRIFDSMUSmjGezaZKxQICsH057SJfRONovjNoyQ3nOTdfsVIkyqIO/jOLLrBKfIEulV6nby3SvIObVwnMjkAEg6gZ2HY8De1esPeKF62K82BfIVGf3KaEu6njOLjuN+5QY2DtNImF6gN83wqm4g62+XyMU2ur81cMte5WfItsOIITk32zxuW/do/quGI02ka/eKu7by8P1CvOy2++XG9Dt//bKI6+W6xI/fgI=);lineShape=1;strokeColor=#d79b00;fillColor=#ffe6cc;" vertex="1" parent="EvC8QoXtSVJTTWV4gr5P-52">
          <mxGeometry x="45.727371821280485" y="16.06606894437141" width="93.04130968545041" height="12.026979512490698" as="geometry" />
        </mxCell>
        <mxCell id="EvC8QoXtSVJTTWV4gr5P-50" value="" style="shape=stencil(7VvJbhw3FPwaXRvcl7Pj/IcBy7EQxzJkZ/v7FKOwNazXXZ0ECJCDbvKYNeTb6z1y7uKbrx/ffbm/C+7rt6fHH+9/fXj/7eNd/O4uhIfPH++fHr7hr7v49i6++fD4dP/D0+PPn98///vLu7Fy/PXT4y/jG357xuUtuQEK7vfnD0LfWv3zk++f1396+Lyuj8v6mLcc5fqyrE9u616tz2lZn91W5HnKep5ct5rUer+ep6Qtl/P1cattWV/d5sX3hy15/v4SzteXrUdzHne+3vutGYDawJetGomdsEBwW1xNUCCUMEHwW151lPMWhQwAhLo6RdqqBpDVYp+fnAHcaoYYtpCl0L2vAChaaQk75BUAR9WAsKoVkZaaVuu6Q2hXgL5qKVQZO8NZMwO8skPY+mpp+G/tAhA5nAdAyQDfbHwkpyyNcKlGaCVDYktDrVHJAGdefQmGi0oG5LDArqFiegCM88l4QNYj57sQGoDVDinOoD0D1HWH1KeznAH6CshJFhKYqa9ayk3ugAgmOxQdcbFsgQBQq0iVADRvZNA7NKpu+ETJgPgiS7etC8MlP0W8cQ1Vr2DXtsYD9lSWRuqlRDZcQ8QD/pstvae2M0Bdhc59y0KtABQqWVVmjQFY3bvuaeFMaL+mmYayLlwDdu2rWhsUrYTunAQaXEPskMPm18Le+vTfY0CcJ745UlQ7xJncdy3t7O/sSJTuYQdJDgOzJUScV+wwsJZwyK4Bkby1zHx+DED2NtTBqR3a1lYZEKKSwQVDHbqkxFBiNpxYqbV6ZmRpL/XHgKOYVrm1ls0TQGcNABrxdOwg7ABAXZ0vazvYIxV9pOYnMb8huk3s0JLZIU1iegzYI/jGvVXEtcZsBloqSobG7VgqMs0gRzhyDTfT8yGgu8nlbxq4JpIAdiByAvoThKWhVmr5QBulDI59yXdph1onD94BRaZKxAPVB7/b/iziwio0+i5F4YoxnHeSa5S9RdoBQSYBpBlKAj5P9nEM8LPR3gF1OssZIEYGqJgG/6pmh6Iyn+MKNHZQ3bqporB01wBnAMrSSPdEsKBWWbKasUOcTPYMEIylFW8dADoS3FFYehxpjekuy8OQmciMpFdDqWs0aDqG9aTTC8cLnIirnFC85PU9D0+bnAUnRXOWFb0akpElXx00yvP3q1q4c/6X9cpeDfqpJK8iq8jA1B4W2daPMsXnVySs71XvZb3yh56Zqe5TxOORlXObM9lU9be984l8m93iMaAwy3uZPB4DIk9jYpyDtWNAYLIQk5yVQKvEtlGZVRkEgNQKgJpNovZHc6QktITaT4kCQnvFkFC4aTzspVoHfyGy0OXoAwBv5j2S5fWDEZRK8NASZaOQtHs7nmQE3cTAcNQmAVAUaQs85R47KF+Kc6R1I4OaMwBgJ3tBCZ2YLKCIOLVD4iQ5bhr0DsGMPqqK6cgzK3irTAKR6TniQSV62CEY8uyVDJ5p4YhpTc9pnDmyhsr1nUdQEFpxMACouMWgq4mp/tHprqczyxuDa50E2FuLHFwDwBGn7XAMUAEUZr25KShVxXTmvgrEU+VWW0QBKIoFmCoNgPJWSwO85kmWZwyAIkqGyAyhFfOBlozQVbV6gV1jNADC0uB6bDh9p1Eyx/RoYkSIvvZVE/DaV/0HfZWaZf7TvsrzHD3NYehZKBAp9rIylM6x5iQFqGYAHeT8Gdmic98mxzyGTFZ5UYd8l8khIIAeAGaK5CgtMKZtJmzUXTooCd8SO8m4+07TboqtemAxAERJikwug+mtWkppfsWZDMm84VApeLRK9IijyEjue9zuDa72DNT/ShODPpPyMaCya9RwWWxXS9ckGUbzPACEu8uBeOW6U3UbXXfmeLuD8NYhIl2jeTlMruZ2Ena4KOfUHyJnykGs4+vM7OTNXqlbWIVOXfbpJXCxHTfdKsubO9ykKQkAjmTY7ytPAXSN5mTWAIAYBtSgmB4ANNQfrqGKbeU2o0U5nMjmen8QXkUYMl/J3oyBjhGOuWHfC/YhIO3lYAdkSeqR6CiTdf0UKpnOHqxdkfpo2rem27fx8IkepCV5LTYAdC1W5YXPuB81N3XyiVyb37cDvKzr2IHGGWl/TXWsVtN3pyjHSgAQsxpvFNSTAz/fbdwIrWa4yfEVKzoPlfpQZSmoR2+j1GraBiRDNVZC4af0Xbp07zG2XWMUrtHVm53IV3tFTxzHk7TVNZDJLp7V8ag+6zdsni2N9K06meD4xeXVUygz3rt6bPX6lvAvwOtbQhtx/8O3hKTWqAvKANBbETBd5a15vnn4uyGazVuRLMfdwVyml70AnPlSM49LnI4Hb5Kxovdj6kR3mkFeavrALBHtsjJc4Wd4F+ze8XQc368i2tzBjYdO8vuZqVdZfRxnmIuX/v7opYtSKOvz4pcK3gwn9C8hzJv0Me0RJMY84hrJRXkQv1kJelQaZvd4s15R+jBnkDcjcZlZTK7Ls5k75i/cQV+sTzzevjhP4oH7hbyJmfaFPs0vRS7slY19tT/8i1/eXKzHHy8/8/nw8OnT86+Ebv+ffxaEj55/UhTf/gE=);lineShape=1;strokeColor=#d79b00;fillColor=#ffe6cc;" vertex="1" parent="EvC8QoXtSVJTTWV4gr5P-52">
          <mxGeometry x="61.590975447753635" y="12.415580182523854" width="102.76389635739679" height="47.31834469600153" as="geometry" />
        </mxCell>
      </root>
    </mxGraphModel>
  </diagram>
  <diagram id="50_OXURgpSR7L3hvtmWF" name="共识机制">
    <mxGraphModel dx="1397" dy="718" grid="1" gridSize="10" guides="1" tooltips="1" connect="1" arrows="1" fold="1" page="1" pageScale="1" pageWidth="827" pageHeight="1169" math="0" shadow="0">
      <root>
        <mxCell id="0" />
        <mxCell id="1" parent="0" />
        <mxCell id="4aoewAlTeIwosPY9PzP_-1" value="" style="rounded=1;whiteSpace=wrap;html=1;" vertex="1" parent="1">
          <mxGeometry x="360" y="230" width="190" height="70" as="geometry" />
        </mxCell>
        <mxCell id="4aoewAlTeIwosPY9PzP_-2" value="consensus mechanism" style="text;strokeColor=none;align=center;fillColor=none;html=1;verticalAlign=middle;whiteSpace=wrap;rounded=0;fontStyle=1;fontSize=15;" vertex="1" parent="1">
          <mxGeometry x="366.5" y="245" width="177" height="40" as="geometry" />
        </mxCell>
      </root>
    </mxGraphModel>
  </diagram>
</mxfile>
